<?xml version="1.0" encoding="UTF-8"?>
<svg id="a" data-name="class1" xmlns="http://www.w3.org/2000/svg" viewBox="0 0 471.92 471.92">
  <defs>
    <style>
      .b {
        fill: #f39f14;
      }

      .b, .c, .d {
        stroke-width: 0px;
      }

      .c {
        fill: #646f72;
      }

      .d {
        fill: #fff;
      }
    </style>
  </defs>
  <ellipse class="c" cx="227.62" cy="244.95" rx="227.62" ry="226.97"/>
  <g>
    <ellipse class="b" cx="200.48" cy="282.79" rx="180.77" ry="180.26"/>
    <ellipse class="b" cx="379.34" cy="127.74" rx="56.02" ry="55.86"/>
    <ellipse class="b" cx="422.13" cy="223.37" rx="49.8" ry="49.66"/>
    <ellipse class="b" cx="287.39" cy="63.92" rx="55.71" ry="55.56"/>
    <ellipse class="b" cx="183.09" cy="51.27" rx="51.41" ry="51.27"/>
  </g>
  <path class="d" d="m266.68,281.72c0-34.08-6.68-59.07-20.01-74.98-13.35-15.91-34.18-23.87-62.5-23.87-13.76,0-22.07,1.44-24.94,4.31-1.23,1.44-1.85,6.36-1.85,14.78v163.83c0,5.75.15,9.24.46,10.47.31,1.24,1.18,2.26,2.62,3.08,4.93,2.47,15.29,3.7,31.09,3.7,22.17,0,40.03-7.8,53.57-23.4,14.36-16.43,21.55-42.4,21.55-77.91Zm34.48,1.23c0,36.13-12.63,64.25-37.87,84.37-18.47,14.78-43.21,22.17-74.2,22.17h-83.43c-3.9,0-5.85-1.02-5.85-3.07,0-1.84,3.28-2.76,9.85-2.76,8.41,0,13.65-1.54,15.7-4.6.81-1.43,1.23-5.32,1.23-11.67v-165.48c0-10.02-.76-15.86-2.31-17.5-1.54-1.63-6.83-2.45-15.86-2.45-4.72,0-7.08-1.12-7.08-3.37,0-1.64,1.74-2.46,5.24-2.46-.21,0,2.05,0,6.77,0h46.8c36.94,0,63.11,2.57,78.51,7.7,18.67,6.16,33.76,18.32,45.26,36.48,11.49,18.17,17.24,39.06,17.24,62.65Zm-199.45,3.13c0-4.5,24.06-3.08,44-3.28,21.88-.22,40.87-.27,40.7,3.14-.18,3.7-23.05,2.85-40.93,2.85-16.91,0-43.77,1.84-43.77-2.71Z"/>
</svg>