<?xml version="1.0" encoding="UTF-8"?>
<svg id="a" data-name="レイヤー 1" xmlns="http://www.w3.org/2000/svg" viewBox="0 0 132.36 30">
  <defs>
    <style>
      .b, .c, .d, .e {
        stroke-width: 0px;
      }

      .c {
        fill: #f39f14;
      }

      .d {
        fill: #646f72;
      }

      .e {
        fill: #fff;
      }

      @media (prefers-color-scheme: dark) {
        .b {
          fill: #fff;
        }
      }
    </style>
  </defs>
  <g>
    <path class="b" d="m51.52,17.15c0-3.29-.64-5.71-1.93-7.24-1.29-1.54-3.29-2.31-6.02-2.31-1.32,0-2.13.14-2.4.42-.12.14-.18.61-.18,1.43v15.83c0,.56.01.89.04,1.01.03.12.11.22.25.3.47.24,1.47.36,3,.36,2.14,0,3.86-.75,5.16-2.26,1.38-1.59,2.08-4.1,2.08-7.53Zm3.32.12c0,3.49-1.22,6.21-3.65,8.15-1.78,1.43-4.16,2.14-7.15,2.14h-8.04c-.38,0-.56-.1-.56-.3,0-.18.32-.27.95-.27.81,0,1.31-.15,1.51-.44.08-.14.12-.51.12-1.13v-15.98c0-.97-.07-1.53-.22-1.69-.15-.16-.66-.24-1.53-.24-.45,0-.68-.11-.68-.33,0-.16.17-.24.5-.24-.02,0,.2,0,.65,0h4.51c3.56,0,6.08.25,7.56.74,1.8.59,3.25,1.77,4.36,3.52,1.11,1.76,1.66,3.77,1.66,6.05Zm-19.21.3c0-.43,2.32-.3,4.24-.32,2.11-.02,3.94-.03,3.92.3-.02.36-2.22.28-3.94.28-1.63,0-4.22.18-4.22-.26Z"/>
    <path class="b" d="m67.98,24.37s-.01.15-.04.38c-.03.23-.04.44-.04.62v1.72c0,.18.03.38.09.59l-4.95-.09-5.66.09c-.42,0-.63-.08-.63-.24,0-.18.12-.27.36-.27.63,0,1-.04,1.11-.13.11-.09.16-.41.16-.96v-10.2c0-.81-.07-1.24-.21-1.29-.14-.05-.49-.07-1.04-.07-.24,0-.36-.07-.36-.21,0-.16.13-.24.39-.24h10.14v.2l.03.44c.04.29.12,1.17.24,2.63.02.1.03.21.03.35,0,.25-.07.38-.21.38-.18,0-.31-.2-.38-.59-.28-1.5-.8-2.38-1.57-2.64-.43-.14-1.46-.21-3.07-.21h-1.51v5.55h.71c1.25,0,2.03-.1,2.32-.31.29-.21.49-.78.59-1.71.06-.55.18-.83.36-.83.2,0,.3.2.3.59,0,.24-.02.6-.04,1.1-.03.49-.04.87-.04,1.13,0,1.29.02,2.16.07,2.64.01.16.02.29.02.39,0,.32-.1.47-.29.47-.18,0-.29-.25-.35-.74-.12-1.07-.31-1.71-.58-1.91-.27-.21-1.04-.31-2.31-.31h-.73v6.41c2.89-.02,4.6-.1,5.11-.24.79-.22,1.25-1.17,1.39-2.85.02-.3.13-.45.33-.45s.3.27.3.82Z"/>
    <path class="b" d="m84.47,27.35c0,.16-.18.24-.53.24.08,0-.02,0-.3,0h-4.98c-.36,0-.53-.07-.53-.21,0-.09.04-.14.13-.16.09-.02.42-.03.99-.05.42-.02.66-.08.73-.18.07-.1.1-.47.1-1.1v-9.57c-.36.99-.93,2.62-1.72,4.89-.45,1.36-1.03,3.12-1.72,5.28-.2.61-.36.92-.47.92-.16,0-.33-.27-.5-.8-.45-1.36-1.79-4.74-4-10.14v10.17c0,.26.1.42.3.48.28.02.63.03,1.07.03.26,0,.39.07.39.21,0,.16-.2.24-.59.24h-3.38c-.3,0-.44-.08-.44-.24,0-.14.32-.22.95-.24.43-.02.69-.07.76-.16.07-.09.1-.41.1-.96v-10.05c0-.67-.06-1.07-.19-1.19-.13-.12-.56-.19-1.29-.21-.26,0-.39-.08-.39-.24,0-.12.17-.19.5-.21.34-.02,1.52-.03,3.56-.03l.12.33c.1.22.23.52.39.92l.71,1.78c.2.5.53,1.33,1.01,2.49l1.56,3.88c.3-.95.53-1.65.69-2.1l2.55-7.3h3.56c.51-.02.77.06.77.25,0,.15-.19.23-.56.25-.51.02-.82.04-.92.06-.28.1-.42.32-.42.65v10.47c0,.79.07,1.22.21,1.27.14.06.59.09,1.36.09.3,0,.44.08.44.24Z"/>
    <path class="b" d="m98.88,20.9c0,1.91-.62,3.54-1.87,4.87-1.25,1.33-2.77,2-4.57,2-1.92,0-3.53-.68-4.85-2.03-1.32-1.35-1.97-3-1.97-4.96s.63-3.69,1.88-4.99c1.25-1.29,2.86-1.94,4.82-1.94s3.41.68,4.67,2.03c1.26,1.35,1.88,3.02,1.88,5.02Zm-2.79.09c0-2.29-.46-4.09-1.39-5.41-.59-.85-1.41-1.27-2.46-1.27-1.44,0-2.49.79-3.14,2.37-.45,1.1-.68,2.51-.68,4.2,0,2.03.36,3.62,1.07,4.76.71,1.14,1.7,1.72,2.97,1.72,2.43,0,3.65-2.12,3.65-6.36Z"/>
    <path class="b" d="m106.18,27.38c0,.12-.09.18-.27.18h-4.98c-.34,0-.5-.05-.5-.15,0-.14.22-.21.65-.23.59-.04.9-.11.93-.21s.04-.53.04-1.28v-9.62c0-.78-.02-1.23-.06-1.36-.04-.13-.19-.2-.45-.22h-.89c-.18,0-.27-.07-.27-.21s.13-.21.39-.21c-.02,0,.04,0,.18,0h4.72c.32,0,.47.08.47.24,0,.12-.34.19-1.01.21-.28,0-.45.04-.5.13-.06.09-.09.36-.09.82v11.18c0,.2.07.33.22.39.15.06.5.11,1.05.15.24.02.36.09.36.21Z"/>
    <path class="b" d="m119.52,23.14c0,.06-.01.23-.03.5-.08,1.07-.12,1.82-.12,2.25,0,.3.03.73.09,1.31v.21c0,.2-.08.3-.24.3s-.32-.17-.47-.5l-.27-.56s-.05-.1-.09-.18c-.89.87-2.12,1.31-3.68,1.31-2,0-3.66-.67-4.98-2-1.32-1.33-1.99-3-1.99-5.02s.61-3.66,1.84-4.96c1.23-1.29,2.79-1.94,4.69-1.94,1.48,0,2.73.39,3.74,1.16.08.08.16.12.24.12.1,0,.19-.13.27-.39.14-.43.31-.65.5-.65.14,0,.21.08.21.24,0,.02-.02.11-.06.27-.12.67-.19,1.67-.21,3-.02.83-.13,1.25-.33,1.25-.16,0-.27-.15-.33-.44-.2-1.06-.44-1.85-.71-2.36-.63-1.12-1.67-1.68-3.11-1.68-1.21,0-2.16.58-2.88,1.74-.71,1.16-1.07,2.73-1.07,4.71s.4,3.55,1.19,4.71c.79,1.16,1.86,1.74,3.2,1.74,1.03,0,1.88-.35,2.57-1.04.68-.69,1.13-1.65,1.35-2.89.1-.51.23-.76.39-.76.2,0,.3.19.3.56Z"/>
    <path class="b" d="m132.36,24.37s-.01.15-.04.38c-.03.23-.04.44-.04.62v1.72c0,.18.03.38.09.59l-4.95-.09-5.66.09c-.42,0-.63-.08-.63-.24,0-.18.12-.27.36-.27.63,0,1-.04,1.11-.13.11-.09.16-.41.16-.96v-10.2c0-.81-.07-1.24-.21-1.29-.14-.05-.49-.07-1.04-.07-.24,0-.36-.07-.36-.21,0-.16.13-.24.39-.24h10.14v.2l.03.44c.04.29.12,1.17.24,2.63.02.1.03.21.03.35,0,.25-.07.38-.21.38-.18,0-.31-.2-.38-.59-.28-1.5-.8-2.38-1.57-2.64-.43-.14-1.46-.21-3.07-.21h-1.51v5.55h.71c1.25,0,2.03-.1,2.32-.31.29-.21.49-.78.59-1.71.06-.55.18-.83.36-.83.2,0,.3.2.3.59,0,.24-.02.6-.04,1.1-.03.49-.04.87-.04,1.13,0,1.29.02,2.16.07,2.64.01.16.02.29.02.39,0,.32-.1.47-.29.47-.18,0-.29-.25-.35-.74-.12-1.07-.31-1.71-.58-1.91-.27-.21-1.04-.31-2.31-.31h-.73v6.41c2.89-.02,4.6-.1,5.11-.24.79-.22,1.25-1.17,1.39-2.85.02-.3.13-.45.33-.45s.3.27.3.82Z"/>
  </g>
  <g>
    <circle class="d" cx="14.43" cy="15.57" r="14.43"/>
    <g>
      <circle class="c" cx="12.71" cy="17.98" r="11.46"/>
      <circle class="c" cx="24.05" cy="8.12" r="3.55"/>
      <circle class="c" cx="26.76" cy="14.2" r="3.16"/>
      <circle class="c" cx="18.22" cy="4.06" r="3.53"/>
      <circle class="c" cx="11.61" cy="3.26" r="3.26"/>
    </g>
    <path class="e" d="m16.9,17.91c0-2.17-.42-3.75-1.27-4.77-.85-1.01-2.17-1.52-3.96-1.52-.87,0-1.4.09-1.58.27-.08.09-.12.4-.12.94v10.41c0,.37,0,.59.03.67.02.08.08.14.17.2.31.16.97.24,1.97.24,1.41,0,2.54-.5,3.4-1.49.91-1.04,1.37-2.7,1.37-4.95Zm2.19.08c0,2.3-.8,4.08-2.4,5.36-1.17.94-2.74,1.41-4.7,1.41h-5.29c-.25,0-.37-.07-.37-.2,0-.12.21-.18.62-.18.53,0,.87-.1,1-.29.05-.09.08-.34.08-.74v-10.52c0-.64-.05-1.01-.15-1.11-.1-.1-.43-.16-1.01-.16-.3,0-.45-.07-.45-.21,0-.1.11-.16.33-.16-.01,0,.13,0,.43,0h2.97c2.34,0,4,.16,4.98.49,1.18.39,2.14,1.16,2.87,2.32.73,1.16,1.09,2.48,1.09,3.98Zm-12.64.2c0-.29,1.53-.2,2.79-.21,1.39-.01,2.59-.02,2.58.2-.01.24-1.46.18-2.59.18-1.07,0-2.77.12-2.77-.17Z"/>
  </g>
</svg>