<?xml version="1.0"?>
<svg width="640" height="480" xmlns="http://www.w3.org/2000/svg" xmlns:svg="http://www.w3.org/2000/svg" xmlns:xlink="http://www.w3.org/1999/xlink" enable-background="new 0 0 1480 1570.9" version="1.1" xml:space="preserve">
 <style type="text/css">.st0{fill:none;stroke:#000000;stroke-width:5;stroke-linecap:round;stroke-linejoin:round;}</style>
 <defs>
  <symbol enable-background="new 0 0 1480 1570.9" id="svg_20" version="1.1" viewBox="0 0 1480 1570.9" x="0px" xml:space="preserve" xmlns="http://www.w3.org/2000/svg" xmlns:xlink="http://www.w3.org/1999/xlink" y="0px">
   <style type="text/css">.st0{fill:none;stroke:#000000;stroke-width:5;stroke-linecap:round;stroke-linejoin:round;}</style>
   <line class="st0" x1="672.8" x2="554.7" y1="941.6" y2="1059.7"/>
   <circle class="st0" cx="658.3" cy="980.9" r="7.8"/>
   <path class="st0" d="m613.5,1002.5l18.8,19.2l12.3,-12.3c2.5,-2.5 6.6,-2.5 9.1,0l29.1,29.1"/>
   <path class="st0" d="m556.7,1028.3l36.9,-36.9c2.5,-2.5 6.6,-2.5 9.1,0l2.6,2.7"/>
   <g>
    <path d="m547.5,1100.8l-10.9,-16.6l0,16.6l-3.6,0l0,-23.6l3.3,0l10.9,16.5l0,-16.5l3.6,0l0,23.6l-3.3,0z"/>
    <path d="m574.1,1098.5c-1.6,1.6 -3.7,2.5 -6.2,2.5c-2.5,0 -4.6,-0.9 -6.2,-2.5c-2.3,-2.3 -2.3,-4.9 -2.3,-9.5s0,-7.1 2.3,-9.5c1.6,-1.6 3.7,-2.5 6.2,-2.5c2.5,0 4.6,0.9 6.2,2.5c2.3,2.3 2.3,4.9 2.3,9.5s0,7.1 -2.3,9.5zm-2.7,-16.8c-0.8,-0.9 -2.1,-1.5 -3.5,-1.5c-1.4,0 -2.7,0.6 -3.5,1.5c-1.2,1.3 -1.4,2.6 -1.4,7.3s0.2,6.1 1.4,7.3c0.8,0.9 2.1,1.5 3.5,1.5c1.4,0 2.7,-0.6 3.5,-1.5c1.2,-1.3 1.4,-2.6 1.4,-7.3s-0.2,-6.1 -1.4,-7.3z"/>
    <path d="m596.2,1100.8l0,-23.6l3.6,0l0,23.6l-3.6,0z"/>
    <path d="m626.5,1100.8l0,-15.8l-5.4,11.5l-2.6,0l-5.6,-11.5l0,15.8l-3.6,0l0,-23.6l3.6,0l6.9,14.7l6.8,-14.7l3.6,0l0,23.6l-3.7,0z"/>
    <path d="m653,1100.8l-1.6,-4.7l-9.3,0l-1.6,4.7l-3.8,0l8.6,-23.6l2.9,0l8.6,23.6l-3.8,0zm-6.2,-18.3l-3.7,10.5l7.2,0l-3.5,-10.5z"/>
    <path d="m677.2,1098.3c-1.8,1.9 -4,2.7 -6.5,2.7c-2.4,0 -4.6,-0.9 -6.2,-2.5c-2.3,-2.3 -2.3,-4.9 -2.3,-9.5s0,-7.1 2.3,-9.5c1.6,-1.6 3.7,-2.5 6.2,-2.5c5,0 7.9,3.3 8.6,7.3l-3.6,0c-0.6,-2.6 -2.3,-4.1 -5,-4.1c-1.4,0 -2.6,0.6 -3.5,1.5c-1.2,1.3 -1.4,2.6 -1.4,7.3s0.3,6.1 1.4,7.3c0.8,0.9 2.1,1.4 3.5,1.4c1.6,0 2.9,-0.6 3.8,-1.7c0.9,-1 1.2,-2.2 1.2,-3.7l0,-1.3l-5,0l0,-3l8.6,0l0,3.6c0.1,3.1 -0.5,5 -2.1,6.7z"/>
    <path d="m687.9,1100.8l0,-23.6l15.1,0l0,3.2l-11.5,0l0,6.9l9.8,0l0,3.2l-9.8,0l0,7.1l11.5,0l0,3.2l-15.1,0z"/>
   </g>
   <path class="st0" d="m567.1,1049.2l102.1,0c7.7,0 14,-6.3 14,-14l0,-66.4c0,-7.7 -6.3,-14 -14,-14l-8.2,0"/>
   <path class="st0" d="m645.3,954.8l-75.2,0c-7.7,0 -14,6.3 -14,14l0,66.4c0,3.4 0.9,5.1 2.1,6.9"/>
  </symbol>
 </defs>
 <g class="layer">
  <title>Layer 1</title>
  <use id="svg_21" transform="matrix(7.81594 0 0 7.81594 -1889.74 -2175.68)" x="0" xlink:href="#svg_20" y="-3"/>
 </g>
</svg>